<?xml version="1.0" standalone="no"?>
<!DOCTYPE svg PUBLIC "-//W3C//DTD SVG 20010904//EN"
 "http://www.w3.org/TR/2001/REC-SVG-20010904/DTD/svg10.dtd">
<svg version="1.0" xmlns="http://www.w3.org/2000/svg"
 width="500.000000pt" height="500.000000pt" viewBox="0 0 500.000000 500.000000"
 preserveAspectRatio="xMidYMid meet">

<g transform="translate(0.000000,500.000000) scale(0.100000,-0.100000)"
fill="#000000" stroke="none">
<path d="M1200 3268 l0 -193 542 3 c299 1 550 0 558 -4 12 -4 11 -9 -9 -25
-13 -10 -19 -19 -15 -19 5 0 1 -5 -9 -11 -9 -6 -15 -14 -12 -20 4 -5 1 -9 -4
-9 -6 0 -11 -6 -11 -14 0 -8 -7 -16 -15 -20 -8 -3 -15 -12 -15 -19 0 -8 -10
-25 -22 -38 -32 -35 -98 -127 -98 -138 0 -5 -7 -12 -16 -15 -8 -3 -13 -10 -10
-15 3 -5 -1 -11 -9 -15 -8 -3 -15 -12 -15 -19 0 -8 -12 -27 -27 -43 -15 -16
-27 -31 -27 -34 0 -3 -6 -12 -13 -20 -42 -52 -173 -237 -173 -243 0 -3 -9 -16
-20 -29 -19 -22 -422 -589 -597 -838 l-80 -115 801 -3 c441 -1 807 0 814 3 9
3 12 51 12 190 l0 185 -434 2 -435 3 173 245 c95 135 239 340 321 455 82 116
169 239 194 275 25 36 91 130 147 210 57 80 127 179 156 220 29 41 84 120 123
175 39 55 75 106 79 113 6 9 -182 12 -923 12 l-931 0 0 -192z"/>
<path d="M3075 3248 c-82 -116 -151 -215 -153 -219 -2 -5 55 -9 127 -9 l130 0
-22 -35 c-65 -104 -120 -197 -149 -252 l-32 -63 -155 -2 -156 -3 -127 -176
-126 -177 216 -259 c120 -143 251 -300 292 -349 42 -49 122 -144 179 -211
l103 -123 259 0 c142 0 259 2 259 5 0 3 -55 72 -122 152 -68 81 -134 162 -148
179 -14 17 -133 159 -265 314 -132 155 -244 288 -248 296 -7 12 11 14 100 14
l108 1 47 67 c26 37 81 114 123 172 222 305 265 369 265 392 0 14 9 74 20 135
25 142 60 346 60 356 0 4 -98 7 -217 7 l-218 -1 -150 -211z"/>
</g>
</svg>
